# xmcd
#
# Track frame offsets:
#	150
#	22635
#	45080
#	63482
#	82112
#	102362
#	125232
#	145615
#	164765
#	183962
#	202982
#	225455
#
# Disc length: 3283 seconds
#
# Revision: 0
# Processed by: cddbd v1.4PL0 Copyright (c) Steve Scherf et al.
# Submitted via: EasyCDDAExtractor 4.6.0.1
#
DISCID=970cd10c
DTITLE=Titi DJ - Menyanyikan Kembali
DYEAR=2001
DGENRE=Pop
TTITLE0=Semua Salahku
TTITLE1=Tak Akan Ada Cinta Yang Lain
TTITLE2=Ekspresi
TTITLE3=Sang Dewi
TTITLE4=Sinar Matamu
TTITLE5=Kuingin
TTITLE6=Bahasa Kalbu
TTITLE7=Dunia Boleh Tertawa
TTITLE8=Salahkah Aku
TTITLE9=Bintang-bintang
TTITLE10=Malisa
TTITLE11=Jangan Berhenti Mencintaiku
EXTD=
EXTT0=
EXTT1=
EXTT2=
EXTT3=
EXTT4=
EXTT5=
EXTT6=
EXTT7=
EXTT8=
EXTT9=
EXTT10=
EXTT11=
PLAYORDER=
